<svg width="1051" height="1489" viewBox="0 0 1051 1489" fill="none" xmlns="http://www.w3.org/2000/svg">
<mask id="path-1-outside-1_81_13" maskUnits="userSpaceOnUse" x="-0.000976562" y="-0.00305176" width="1051" height="1489" fill="black">
<rect fill="white" x="-0.000976562" y="-0.00305176" width="1051" height="1489"/>
<path d="M472.911 1273.04C482.719 1252.8 488.937 1231.74 491.31 1209.9C493.475 1189.97 493.961 1169.83 494.462 1149.76C494.965 1129.61 494.854 1109.43 494.503 1089.27C494.028 1061.93 489.436 1035.2 481.81 1008.95C475.012 985.54 465.934 963.092 452.836 942.54C444.941 930.153 436.758 917.655 426.852 906.915C411.995 890.805 395.962 875.816 377.401 863.599C350.797 846.089 322.277 832.498 293.419 819.339C265.455 806.587 237.597 793.55 210.169 779.693C185.793 767.378 163.756 751.348 144.025 732.421C127.087 716.174 112.287 698.146 101.356 677.191C100.668 675.872 99.3659 674.758 99.039 673.384C96.039 660.777 85.6308 658.173 75.2309 655.782C62.0273 652.746 51.3208 645.523 41.2186 636.879C23.0802 621.359 13.7393 601.042 10.9463 578.098C8.12496 554.921 11.3468 532.104 24.1171 511.897C38.4794 489.172 59.6246 475.544 85.6955 469.759C104.792 465.521 123.79 466.668 141.984 474.006C160.121 481.322 174.61 493.383 185.679 509.656C194.382 522.45 199.662 536.549 201.352 551.709C204.359 578.678 198.62 603.7 180.72 624.682C173.692 632.919 164.991 639.8 156.621 646.782C153.813 649.124 153.96 650.687 155.34 653.328C161.687 665.479 170.051 676.084 179.394 686.072C191.615 699.135 205.39 710.233 220.389 719.855C243.538 734.707 268.311 746.34 293.783 756.567C300.644 759.322 307.483 762.133 314.935 765.164C312.618 755.099 310.259 746 308.461 736.79C305.207 720.132 304.409 703.388 305.284 686.34C306.491 662.804 311.728 640.27 320.346 618.645C326.339 603.608 333.897 589.093 341.874 574.977C350.17 560.299 359.446 546.133 368.969 532.205C378.125 518.813 388.348 506.155 397.736 492.916C408.571 477.635 419.43 462.339 429.484 446.545C437.994 433.178 445.994 419.405 453.126 405.26C470.803 370.199 482.935 333.217 488.561 294.298C490.835 278.575 492.129 262.701 493.539 246.867C494.445 236.696 494.369 236.184 484.598 232.292C470.098 226.515 456.887 218.846 444.9 208.868C435.268 200.85 428.651 190.532 422.373 180.01C411.266 161.395 406.158 141.01 407.73 119.461C409.795 91.1691 419.487 65.7281 439.703 45.1646C456.354 28.2283 476.004 16.1614 499.712 12.2092C533.416 6.59087 565.153 11.095 593.144 32.4241C614.172 48.4479 629.017 68.8447 634.885 94.7572C638.222 109.49 638.539 124.667 636.834 139.842C635.561 151.173 632.884 162.009 628.245 172.408C620.087 190.695 607.458 205.223 591.248 216.785C581.187 223.961 570.63 230.176 558.69 233.746C554.529 234.991 552.287 236.662 553.276 242.111C554.598 249.396 553.642 257.069 554.645 264.443C556.986 281.663 559.095 298.982 562.782 315.938C569.394 346.344 578.808 375.967 593.643 403.475C603.242 421.274 613.841 438.537 624.177 455.93C627.616 461.717 627.736 462.963 622.82 467.885C612.927 477.79 603.034 487.695 593.12 497.58C588.623 502.064 587.7 501.865 583.866 497.079C563.878 472.132 549.055 444.133 535.534 415.377C532.287 408.472 529.591 401.31 526.608 394.28C525.905 392.626 525.062 391.032 523.759 388.317C522.278 391.29 521.122 393.354 520.192 395.516C508.822 421.939 496.13 447.721 480.764 472.039C468.729 491.087 455.963 509.688 443.085 528.182C430.215 546.664 416.509 564.566 403.705 583.092C389.51 603.63 377.703 625.526 369.573 649.222C360.758 674.916 359.245 701.128 364.776 727.729C370.308 754.333 381.392 778.398 398.29 799.669C408.854 812.965 421.671 824.021 434.377 835.216C450.564 849.477 466.66 863.886 479.519 881.448C483.801 887.298 488.489 892.85 494.187 898.376C494.317 896.568 494.558 894.761 494.559 892.953C494.582 861.787 494.585 830.621 494.572 799.455C494.553 752.152 502.548 706.236 520.017 662.283C528.584 640.726 539.192 620.113 552.457 600.779C566.505 580.303 582.097 561.262 599.292 543.485C626.72 515.129 654.614 487.221 681.862 458.694C700.949 438.711 716.871 416.271 730.781 392.353C740.671 375.349 749.335 357.828 754.822 338.939C758.237 327.184 760.678 315.142 763.407 303.195C764.513 298.357 762.859 295.458 757.717 293.514C731.605 283.644 712.819 265.526 701.107 240.396C695.557 228.49 692.635 215.829 692.339 202.366C691.997 186.751 693.173 171.584 698.949 157.025C705.926 139.44 716.316 124.424 731.328 112.455C742.795 103.312 755.158 96.1645 769.099 92.0046C792.316 85.0765 815.127 86.1932 837.74 95.5331C852.177 101.496 864.626 110.116 875.336 121.098C891.086 137.245 900.238 156.893 903.607 179.217C908.315 210.423 900.254 238.329 880.725 262.678C867.873 278.702 850.823 289.499 831.534 296.365C825.15 298.637 822.019 302.002 820.84 308.786C816.284 335.016 808.866 360.457 798.649 385.091C791.181 403.094 782.17 420.223 771.627 436.61C758.568 456.907 744.06 476.078 727.242 493.371C701.942 519.387 676.062 544.841 650.881 570.969C627.706 595.015 605.915 620.246 589.271 649.474C573.081 677.903 562.016 708.184 557.718 740.625C555.218 759.495 553.306 778.536 552.733 797.548C551.71 831.491 551.898 865.471 551.604 899.436C551.596 900.363 551.871 901.292 552.159 903.157C555.304 899.304 558.026 896.267 560.418 892.99C574.852 873.213 590.89 854.85 608.687 838.039C618.35 828.911 628.653 820.399 637.748 810.744C654.526 792.933 668.978 773.366 676.897 749.84C681.873 735.053 685.372 720.048 685.828 704.144C686.482 681.295 681.844 659.706 673.932 638.61C671.315 631.635 668.065 624.872 664.721 618.204C662.861 614.496 663.262 611.525 666.021 608.748C675.504 599.201 684.868 589.526 694.609 580.248C700.711 574.435 706.863 575.612 710.746 583.243C722.289 605.928 732.752 629.095 738.172 654.124C742.965 676.26 742.221 698.691 740.718 721.112C740.313 727.162 739.981 733.216 739.54 740.52C745.536 736.979 750.607 734.299 755.348 731.126C771.349 720.42 787.567 709.991 803.051 698.573C814.35 690.24 824.613 680.504 835.355 671.415C850.694 658.434 863.219 642.953 874.234 626.32C880.541 616.798 885.562 606.427 891.2 596.459C892.979 593.315 892.442 591.548 889.219 589.211C878.091 581.145 866.348 573.528 856.749 563.846C841.174 548.136 832.636 528.348 829.542 506.348C827.41 491.185 828.36 476.246 832.416 461.455C836.438 446.786 843.928 434.042 853.398 422.322C870.01 401.764 891.773 390.093 917.448 385.192C936.591 381.538 955.221 383.866 973.127 391.067C998.205 401.152 1017.63 418.444 1028.73 442.812C1042.72 473.487 1044.68 505.059 1029.19 536.575C1015.38 564.667 993.611 583.141 964.466 593.553C960.88 594.834 957.282 596.255 954.002 598.151C952.305 599.132 950.805 601.1 950.048 602.961C942.768 620.84 934.813 638.383 923.702 654.257C916.679 664.29 909.68 674.424 901.719 683.695C892.784 694.1 883.305 704.176 873.098 713.317C860.77 724.358 848.004 735.102 834.404 744.491C807.38 763.145 779.548 780.625 752.254 798.895C731.584 812.731 710.794 826.456 690.88 841.331C676.035 852.419 662.567 865.342 648.371 877.311C632.658 890.558 620.803 907.107 608.249 923.127C581.161 957.692 566.002 997.474 558.039 1040C554.427 1059.29 553.488 1079.2 552.76 1098.88C551.689 1127.81 552.544 1156.82 551.39 1185.75C549.979 1221.14 543.168 1255.69 528.526 1288.07C520.281 1306.31 510.794 1324.19 499.928 1340.98C488.623 1358.44 474.744 1374.09 459.747 1388.79C443.304 1404.9 425.401 1419.08 405.995 1431.1C382.22 1445.83 356.652 1457.17 329.573 1464.53C313.597 1468.86 297.493 1473.27 281.154 1475.58C264.628 1477.91 247.741 1478.36 231.013 1478.35C219.122 1478.35 209.321 1467.34 208.742 1454.92C208.515 1450.05 209.072 1444.92 210.422 1440.24C213.186 1430.66 219.974 1425.66 230.025 1424.59C262.176 1421.17 294.315 1417.77 325.072 1406.7C351.836 1397.07 377.105 1384.53 399.39 1366.91C419.753 1350.8 438.138 1332.46 451.791 1310.05C459.113 1298.04 465.785 1285.62 472.911 1273.04ZM482.648 84.1899C480.936 86.2118 479.078 88.1282 477.537 90.2721C463.86 109.298 461.191 129.465 472.162 150.57C476.435 158.789 482.311 165.704 490.253 171.165C503.299 180.136 517.301 185.14 532.833 181.765C545.925 178.92 557.115 172.094 566.384 161.758C578.651 148.077 583.24 131.939 580.025 114.82C575.609 91.3047 561.04 75.3223 537.111 69.7815C530.13 68.1649 522.559 68.41 515.318 68.8301C510.172 69.1286 504.726 70.3392 500.137 72.6064C494.128 75.5754 488.831 79.9865 482.648 84.1899ZM808.764 243.577C830.542 239.15 849.004 214.557 847.8 192.746C846.287 165.349 825.29 145.402 798.313 144.944C785.571 144.728 773.758 150.086 764.731 159.226C752.921 171.185 747.932 185.744 750.438 202.863C754.353 229.615 781.807 249.342 808.764 243.577ZM899.066 523.609C911.093 536.846 926.503 542.438 943.565 539.101C963.951 535.114 983.196 515.759 982.932 490.626C982.613 460.408 951.977 434.231 921.43 443.476C897.531 450.71 881.763 476.218 887.341 500.644C889.279 509.133 893.252 516.401 899.066 523.609ZM69.3404 576.135C71.4838 583.58 76.4035 588.943 81.9453 594.131C95.7041 607.012 118.194 605.842 131.424 594.121C141.195 585.466 144.771 574.234 143.709 561.07C142.362 544.364 131.902 530.778 115.775 526.271C100.63 522.038 83.8317 528.288 74.5576 541.655C67.3734 552.009 66.287 563.395 69.3404 576.135Z"/>
</mask>
<path d="M472.911 1273.04C482.719 1252.8 488.937 1231.74 491.31 1209.9C493.475 1189.97 493.961 1169.83 494.462 1149.76C494.965 1129.61 494.854 1109.43 494.503 1089.27C494.028 1061.93 489.436 1035.2 481.81 1008.95C475.012 985.54 465.934 963.092 452.836 942.54C444.941 930.153 436.758 917.655 426.852 906.915C411.995 890.805 395.962 875.816 377.401 863.599C350.797 846.089 322.277 832.498 293.419 819.339C265.455 806.587 237.597 793.55 210.169 779.693C185.793 767.378 163.756 751.348 144.025 732.421C127.087 716.174 112.287 698.146 101.356 677.191C100.668 675.872 99.3659 674.758 99.039 673.384C96.039 660.777 85.6308 658.173 75.2309 655.782C62.0273 652.746 51.3208 645.523 41.2186 636.879C23.0802 621.359 13.7393 601.042 10.9463 578.098C8.12496 554.921 11.3468 532.104 24.1171 511.897C38.4794 489.172 59.6246 475.544 85.6955 469.759C104.792 465.521 123.79 466.668 141.984 474.006C160.121 481.322 174.61 493.383 185.679 509.656C194.382 522.45 199.662 536.549 201.352 551.709C204.359 578.678 198.62 603.7 180.72 624.682C173.692 632.919 164.991 639.8 156.621 646.782C153.813 649.124 153.96 650.687 155.34 653.328C161.687 665.479 170.051 676.084 179.394 686.072C191.615 699.135 205.39 710.233 220.389 719.855C243.538 734.707 268.311 746.34 293.783 756.567C300.644 759.322 307.483 762.133 314.935 765.164C312.618 755.099 310.259 746 308.461 736.79C305.207 720.132 304.409 703.388 305.284 686.34C306.491 662.804 311.728 640.27 320.346 618.645C326.339 603.608 333.897 589.093 341.874 574.977C350.17 560.299 359.446 546.133 368.969 532.205C378.125 518.813 388.348 506.155 397.736 492.916C408.571 477.635 419.43 462.339 429.484 446.545C437.994 433.178 445.994 419.405 453.126 405.26C470.803 370.199 482.935 333.217 488.561 294.298C490.835 278.575 492.129 262.701 493.539 246.867C494.445 236.696 494.369 236.184 484.598 232.292C470.098 226.515 456.887 218.846 444.9 208.868C435.268 200.85 428.651 190.532 422.373 180.01C411.266 161.395 406.158 141.01 407.73 119.461C409.795 91.1691 419.487 65.7281 439.703 45.1646C456.354 28.2283 476.004 16.1614 499.712 12.2092C533.416 6.59087 565.153 11.095 593.144 32.4241C614.172 48.4479 629.017 68.8447 634.885 94.7572C638.222 109.49 638.539 124.667 636.834 139.842C635.561 151.173 632.884 162.009 628.245 172.408C620.087 190.695 607.458 205.223 591.248 216.785C581.187 223.961 570.63 230.176 558.69 233.746C554.529 234.991 552.287 236.662 553.276 242.111C554.598 249.396 553.642 257.069 554.645 264.443C556.986 281.663 559.095 298.982 562.782 315.938C569.394 346.344 578.808 375.967 593.643 403.475C603.242 421.274 613.841 438.537 624.177 455.93C627.616 461.717 627.736 462.963 622.82 467.885C612.927 477.79 603.034 487.695 593.12 497.58C588.623 502.064 587.7 501.865 583.866 497.079C563.878 472.132 549.055 444.133 535.534 415.377C532.287 408.472 529.591 401.31 526.608 394.28C525.905 392.626 525.062 391.032 523.759 388.317C522.278 391.29 521.122 393.354 520.192 395.516C508.822 421.939 496.13 447.721 480.764 472.039C468.729 491.087 455.963 509.688 443.085 528.182C430.215 546.664 416.509 564.566 403.705 583.092C389.51 603.63 377.703 625.526 369.573 649.222C360.758 674.916 359.245 701.128 364.776 727.729C370.308 754.333 381.392 778.398 398.29 799.669C408.854 812.965 421.671 824.021 434.377 835.216C450.564 849.477 466.66 863.886 479.519 881.448C483.801 887.298 488.489 892.85 494.187 898.376C494.317 896.568 494.558 894.761 494.559 892.953C494.582 861.787 494.585 830.621 494.572 799.455C494.553 752.152 502.548 706.236 520.017 662.283C528.584 640.726 539.192 620.113 552.457 600.779C566.505 580.303 582.097 561.262 599.292 543.485C626.72 515.129 654.614 487.221 681.862 458.694C700.949 438.711 716.871 416.271 730.781 392.353C740.671 375.349 749.335 357.828 754.822 338.939C758.237 327.184 760.678 315.142 763.407 303.195C764.513 298.357 762.859 295.458 757.717 293.514C731.605 283.644 712.819 265.526 701.107 240.396C695.557 228.49 692.635 215.829 692.339 202.366C691.997 186.751 693.173 171.584 698.949 157.025C705.926 139.44 716.316 124.424 731.328 112.455C742.795 103.312 755.158 96.1645 769.099 92.0046C792.316 85.0765 815.127 86.1932 837.74 95.5331C852.177 101.496 864.626 110.116 875.336 121.098C891.086 137.245 900.238 156.893 903.607 179.217C908.315 210.423 900.254 238.329 880.725 262.678C867.873 278.702 850.823 289.499 831.534 296.365C825.15 298.637 822.019 302.002 820.84 308.786C816.284 335.016 808.866 360.457 798.649 385.091C791.181 403.094 782.17 420.223 771.627 436.61C758.568 456.907 744.06 476.078 727.242 493.371C701.942 519.387 676.062 544.841 650.881 570.969C627.706 595.015 605.915 620.246 589.271 649.474C573.081 677.903 562.016 708.184 557.718 740.625C555.218 759.495 553.306 778.536 552.733 797.548C551.71 831.491 551.898 865.471 551.604 899.436C551.596 900.363 551.871 901.292 552.159 903.157C555.304 899.304 558.026 896.267 560.418 892.99C574.852 873.213 590.89 854.85 608.687 838.039C618.35 828.911 628.653 820.399 637.748 810.744C654.526 792.933 668.978 773.366 676.897 749.84C681.873 735.053 685.372 720.048 685.828 704.144C686.482 681.295 681.844 659.706 673.932 638.61C671.315 631.635 668.065 624.872 664.721 618.204C662.861 614.496 663.262 611.525 666.021 608.748C675.504 599.201 684.868 589.526 694.609 580.248C700.711 574.435 706.863 575.612 710.746 583.243C722.289 605.928 732.752 629.095 738.172 654.124C742.965 676.26 742.221 698.691 740.718 721.112C740.313 727.162 739.981 733.216 739.54 740.52C745.536 736.979 750.607 734.299 755.348 731.126C771.349 720.42 787.567 709.991 803.051 698.573C814.35 690.24 824.613 680.504 835.355 671.415C850.694 658.434 863.219 642.953 874.234 626.32C880.541 616.798 885.562 606.427 891.2 596.459C892.979 593.315 892.442 591.548 889.219 589.211C878.091 581.145 866.348 573.528 856.749 563.846C841.174 548.136 832.636 528.348 829.542 506.348C827.41 491.185 828.36 476.246 832.416 461.455C836.438 446.786 843.928 434.042 853.398 422.322C870.01 401.764 891.773 390.093 917.448 385.192C936.591 381.538 955.221 383.866 973.127 391.067C998.205 401.152 1017.63 418.444 1028.73 442.812C1042.72 473.487 1044.68 505.059 1029.19 536.575C1015.38 564.667 993.611 583.141 964.466 593.553C960.88 594.834 957.282 596.255 954.002 598.151C952.305 599.132 950.805 601.1 950.048 602.961C942.768 620.84 934.813 638.383 923.702 654.257C916.679 664.29 909.68 674.424 901.719 683.695C892.784 694.1 883.305 704.176 873.098 713.317C860.77 724.358 848.004 735.102 834.404 744.491C807.38 763.145 779.548 780.625 752.254 798.895C731.584 812.731 710.794 826.456 690.88 841.331C676.035 852.419 662.567 865.342 648.371 877.311C632.658 890.558 620.803 907.107 608.249 923.127C581.161 957.692 566.002 997.474 558.039 1040C554.427 1059.29 553.488 1079.2 552.76 1098.88C551.689 1127.81 552.544 1156.82 551.39 1185.75C549.979 1221.14 543.168 1255.69 528.526 1288.07C520.281 1306.31 510.794 1324.19 499.928 1340.98C488.623 1358.44 474.744 1374.09 459.747 1388.79C443.304 1404.9 425.401 1419.08 405.995 1431.1C382.22 1445.83 356.652 1457.17 329.573 1464.53C313.597 1468.86 297.493 1473.27 281.154 1475.58C264.628 1477.91 247.741 1478.36 231.013 1478.35C219.122 1478.35 209.321 1467.34 208.742 1454.92C208.515 1450.05 209.072 1444.92 210.422 1440.24C213.186 1430.66 219.974 1425.66 230.025 1424.59C262.176 1421.17 294.315 1417.77 325.072 1406.7C351.836 1397.07 377.105 1384.53 399.39 1366.91C419.753 1350.8 438.138 1332.46 451.791 1310.05C459.113 1298.04 465.785 1285.62 472.911 1273.04ZM482.648 84.1899C480.936 86.2118 479.078 88.1282 477.537 90.2721C463.86 109.298 461.191 129.465 472.162 150.57C476.435 158.789 482.311 165.704 490.253 171.165C503.299 180.136 517.301 185.14 532.833 181.765C545.925 178.92 557.115 172.094 566.384 161.758C578.651 148.077 583.24 131.939 580.025 114.82C575.609 91.3047 561.04 75.3223 537.111 69.7815C530.13 68.1649 522.559 68.41 515.318 68.8301C510.172 69.1286 504.726 70.3392 500.137 72.6064C494.128 75.5754 488.831 79.9865 482.648 84.1899ZM808.764 243.577C830.542 239.15 849.004 214.557 847.8 192.746C846.287 165.349 825.29 145.402 798.313 144.944C785.571 144.728 773.758 150.086 764.731 159.226C752.921 171.185 747.932 185.744 750.438 202.863C754.353 229.615 781.807 249.342 808.764 243.577ZM899.066 523.609C911.093 536.846 926.503 542.438 943.565 539.101C963.951 535.114 983.196 515.759 982.932 490.626C982.613 460.408 951.977 434.231 921.43 443.476C897.531 450.71 881.763 476.218 887.341 500.644C889.279 509.133 893.252 516.401 899.066 523.609ZM69.3404 576.135C71.4838 583.58 76.4035 588.943 81.9453 594.131C95.7041 607.012 118.194 605.842 131.424 594.121C141.195 585.466 144.771 574.234 143.709 561.07C142.362 544.364 131.902 530.778 115.775 526.271C100.63 522.038 83.8317 528.288 74.5576 541.655C67.3734 552.009 66.287 563.395 69.3404 576.135Z" fill="black"/>
<path d="M472.911 1273.04C482.719 1252.8 488.937 1231.74 491.31 1209.9C493.475 1189.97 493.961 1169.83 494.462 1149.76C494.965 1129.61 494.854 1109.43 494.503 1089.27C494.028 1061.93 489.436 1035.2 481.81 1008.95C475.012 985.54 465.934 963.092 452.836 942.54C444.941 930.153 436.758 917.655 426.852 906.915C411.995 890.805 395.962 875.816 377.401 863.599C350.797 846.089 322.277 832.498 293.419 819.339C265.455 806.587 237.597 793.55 210.169 779.693C185.793 767.378 163.756 751.348 144.025 732.421C127.087 716.174 112.287 698.146 101.356 677.191C100.668 675.872 99.3659 674.758 99.039 673.384C96.039 660.777 85.6308 658.173 75.2309 655.782C62.0273 652.746 51.3208 645.523 41.2186 636.879C23.0802 621.359 13.7393 601.042 10.9463 578.098C8.12496 554.921 11.3468 532.104 24.1171 511.897C38.4794 489.172 59.6246 475.544 85.6955 469.759C104.792 465.521 123.79 466.668 141.984 474.006C160.121 481.322 174.61 493.383 185.679 509.656C194.382 522.45 199.662 536.549 201.352 551.709C204.359 578.678 198.62 603.7 180.72 624.682C173.692 632.919 164.991 639.8 156.621 646.782C153.813 649.124 153.96 650.687 155.34 653.328C161.687 665.479 170.051 676.084 179.394 686.072C191.615 699.135 205.39 710.233 220.389 719.855C243.538 734.707 268.311 746.34 293.783 756.567C300.644 759.322 307.483 762.133 314.935 765.164C312.618 755.099 310.259 746 308.461 736.79C305.207 720.132 304.409 703.388 305.284 686.34C306.491 662.804 311.728 640.27 320.346 618.645C326.339 603.608 333.897 589.093 341.874 574.977C350.17 560.299 359.446 546.133 368.969 532.205C378.125 518.813 388.348 506.155 397.736 492.916C408.571 477.635 419.43 462.339 429.484 446.545C437.994 433.178 445.994 419.405 453.126 405.26C470.803 370.199 482.935 333.217 488.561 294.298C490.835 278.575 492.129 262.701 493.539 246.867C494.445 236.696 494.369 236.184 484.598 232.292C470.098 226.515 456.887 218.846 444.9 208.868C435.268 200.85 428.651 190.532 422.373 180.01C411.266 161.395 406.158 141.01 407.73 119.461C409.795 91.1691 419.487 65.7281 439.703 45.1646C456.354 28.2283 476.004 16.1614 499.712 12.2092C533.416 6.59087 565.153 11.095 593.144 32.4241C614.172 48.4479 629.017 68.8447 634.885 94.7572C638.222 109.49 638.539 124.667 636.834 139.842C635.561 151.173 632.884 162.009 628.245 172.408C620.087 190.695 607.458 205.223 591.248 216.785C581.187 223.961 570.63 230.176 558.69 233.746C554.529 234.991 552.287 236.662 553.276 242.111C554.598 249.396 553.642 257.069 554.645 264.443C556.986 281.663 559.095 298.982 562.782 315.938C569.394 346.344 578.808 375.967 593.643 403.475C603.242 421.274 613.841 438.537 624.177 455.93C627.616 461.717 627.736 462.963 622.82 467.885C612.927 477.79 603.034 487.695 593.12 497.58C588.623 502.064 587.7 501.865 583.866 497.079C563.878 472.132 549.055 444.133 535.534 415.377C532.287 408.472 529.591 401.31 526.608 394.28C525.905 392.626 525.062 391.032 523.759 388.317C522.278 391.29 521.122 393.354 520.192 395.516C508.822 421.939 496.13 447.721 480.764 472.039C468.729 491.087 455.963 509.688 443.085 528.182C430.215 546.664 416.509 564.566 403.705 583.092C389.51 603.63 377.703 625.526 369.573 649.222C360.758 674.916 359.245 701.128 364.776 727.729C370.308 754.333 381.392 778.398 398.29 799.669C408.854 812.965 421.671 824.021 434.377 835.216C450.564 849.477 466.66 863.886 479.519 881.448C483.801 887.298 488.489 892.85 494.187 898.376C494.317 896.568 494.558 894.761 494.559 892.953C494.582 861.787 494.585 830.621 494.572 799.455C494.553 752.152 502.548 706.236 520.017 662.283C528.584 640.726 539.192 620.113 552.457 600.779C566.505 580.303 582.097 561.262 599.292 543.485C626.72 515.129 654.614 487.221 681.862 458.694C700.949 438.711 716.871 416.271 730.781 392.353C740.671 375.349 749.335 357.828 754.822 338.939C758.237 327.184 760.678 315.142 763.407 303.195C764.513 298.357 762.859 295.458 757.717 293.514C731.605 283.644 712.819 265.526 701.107 240.396C695.557 228.49 692.635 215.829 692.339 202.366C691.997 186.751 693.173 171.584 698.949 157.025C705.926 139.44 716.316 124.424 731.328 112.455C742.795 103.312 755.158 96.1645 769.099 92.0046C792.316 85.0765 815.127 86.1932 837.74 95.5331C852.177 101.496 864.626 110.116 875.336 121.098C891.086 137.245 900.238 156.893 903.607 179.217C908.315 210.423 900.254 238.329 880.725 262.678C867.873 278.702 850.823 289.499 831.534 296.365C825.15 298.637 822.019 302.002 820.84 308.786C816.284 335.016 808.866 360.457 798.649 385.091C791.181 403.094 782.17 420.223 771.627 436.61C758.568 456.907 744.06 476.078 727.242 493.371C701.942 519.387 676.062 544.841 650.881 570.969C627.706 595.015 605.915 620.246 589.271 649.474C573.081 677.903 562.016 708.184 557.718 740.625C555.218 759.495 553.306 778.536 552.733 797.548C551.71 831.491 551.898 865.471 551.604 899.436C551.596 900.363 551.871 901.292 552.159 903.157C555.304 899.304 558.026 896.267 560.418 892.99C574.852 873.213 590.89 854.85 608.687 838.039C618.35 828.911 628.653 820.399 637.748 810.744C654.526 792.933 668.978 773.366 676.897 749.84C681.873 735.053 685.372 720.048 685.828 704.144C686.482 681.295 681.844 659.706 673.932 638.61C671.315 631.635 668.065 624.872 664.721 618.204C662.861 614.496 663.262 611.525 666.021 608.748C675.504 599.201 684.868 589.526 694.609 580.248C700.711 574.435 706.863 575.612 710.746 583.243C722.289 605.928 732.752 629.095 738.172 654.124C742.965 676.26 742.221 698.691 740.718 721.112C740.313 727.162 739.981 733.216 739.54 740.52C745.536 736.979 750.607 734.299 755.348 731.126C771.349 720.42 787.567 709.991 803.051 698.573C814.35 690.24 824.613 680.504 835.355 671.415C850.694 658.434 863.219 642.953 874.234 626.32C880.541 616.798 885.562 606.427 891.2 596.459C892.979 593.315 892.442 591.548 889.219 589.211C878.091 581.145 866.348 573.528 856.749 563.846C841.174 548.136 832.636 528.348 829.542 506.348C827.41 491.185 828.36 476.246 832.416 461.455C836.438 446.786 843.928 434.042 853.398 422.322C870.01 401.764 891.773 390.093 917.448 385.192C936.591 381.538 955.221 383.866 973.127 391.067C998.205 401.152 1017.63 418.444 1028.73 442.812C1042.72 473.487 1044.68 505.059 1029.19 536.575C1015.38 564.667 993.611 583.141 964.466 593.553C960.88 594.834 957.282 596.255 954.002 598.151C952.305 599.132 950.805 601.1 950.048 602.961C942.768 620.84 934.813 638.383 923.702 654.257C916.679 664.29 909.68 674.424 901.719 683.695C892.784 694.1 883.305 704.176 873.098 713.317C860.77 724.358 848.004 735.102 834.404 744.491C807.38 763.145 779.548 780.625 752.254 798.895C731.584 812.731 710.794 826.456 690.88 841.331C676.035 852.419 662.567 865.342 648.371 877.311C632.658 890.558 620.803 907.107 608.249 923.127C581.161 957.692 566.002 997.474 558.039 1040C554.427 1059.29 553.488 1079.2 552.76 1098.88C551.689 1127.81 552.544 1156.82 551.39 1185.75C549.979 1221.14 543.168 1255.69 528.526 1288.07C520.281 1306.31 510.794 1324.19 499.928 1340.98C488.623 1358.44 474.744 1374.09 459.747 1388.79C443.304 1404.9 425.401 1419.08 405.995 1431.1C382.22 1445.83 356.652 1457.17 329.573 1464.53C313.597 1468.86 297.493 1473.27 281.154 1475.58C264.628 1477.91 247.741 1478.36 231.013 1478.35C219.122 1478.35 209.321 1467.34 208.742 1454.92C208.515 1450.05 209.072 1444.92 210.422 1440.24C213.186 1430.66 219.974 1425.66 230.025 1424.59C262.176 1421.17 294.315 1417.77 325.072 1406.7C351.836 1397.07 377.105 1384.53 399.39 1366.91C419.753 1350.8 438.138 1332.46 451.791 1310.05C459.113 1298.04 465.785 1285.62 472.911 1273.04ZM482.648 84.1899C480.936 86.2118 479.078 88.1282 477.537 90.2721C463.86 109.298 461.191 129.465 472.162 150.57C476.435 158.789 482.311 165.704 490.253 171.165C503.299 180.136 517.301 185.14 532.833 181.765C545.925 178.92 557.115 172.094 566.384 161.758C578.651 148.077 583.24 131.939 580.025 114.82C575.609 91.3047 561.04 75.3223 537.111 69.7815C530.13 68.1649 522.559 68.41 515.318 68.8301C510.172 69.1286 504.726 70.3392 500.137 72.6064C494.128 75.5754 488.831 79.9865 482.648 84.1899ZM808.764 243.577C830.542 239.15 849.004 214.557 847.8 192.746C846.287 165.349 825.29 145.402 798.313 144.944C785.571 144.728 773.758 150.086 764.731 159.226C752.921 171.185 747.932 185.744 750.438 202.863C754.353 229.615 781.807 249.342 808.764 243.577ZM899.066 523.609C911.093 536.846 926.503 542.438 943.565 539.101C963.951 535.114 983.196 515.759 982.932 490.626C982.613 460.408 951.977 434.231 921.43 443.476C897.531 450.71 881.763 476.218 887.341 500.644C889.279 509.133 893.252 516.401 899.066 523.609ZM69.3404 576.135C71.4838 583.58 76.4035 588.943 81.9453 594.131C95.7041 607.012 118.194 605.842 131.424 594.121C141.195 585.466 144.771 574.234 143.709 561.07C142.362 544.364 131.902 530.778 115.775 526.271C100.63 522.038 83.8317 528.288 74.5576 541.655C67.3734 552.009 66.287 563.395 69.3404 576.135Z" stroke="black" stroke-width="20" mask="url(#path-1-outside-1_81_13)"/>
<path d="M200.888 238.818C230.423 221.705 261.537 220.766 292.794 229.508C309.462 234.169 322.923 244.582 335.101 255.415C355.685 273.727 363.846 297.692 367.139 322.66C369.669 341.848 366.776 360.91 359.465 378.95C351.461 398.698 338.619 414.582 321.302 426.784C316.057 430.479 310.681 434.076 304.617 438.181C306.107 442.07 307.722 446.369 309.742 450.647C318.228 468.621 328.013 485.639 340.436 500.887C342.497 503.417 343.947 506.308 343.959 509.679C343.971 512.959 342.611 515.843 340.897 518.368C332.556 530.655 324.701 543.186 316.525 555.794C314.544 558.85 311.444 561.972 306.961 562.012C302.652 562.049 299.27 559.181 296.785 556.088C284.773 541.135 272.559 525.798 262.845 508.513C251.65 488.594 242.685 467.785 235.101 446.438C234.793 445.573 234.513 445.327 234.38 445.221C234.164 445.051 233.71 444.791 232.557 444.486C220.445 441.282 207.923 437.488 196.561 430.266C176.412 417.462 161.943 399.91 152.931 377.464L152.891 377.362L152.854 377.26C142.85 348.808 141.611 320.059 153.644 292.056C163.353 269.46 179.183 251.394 200.888 238.818ZM285.854 302.715C265.185 283.756 228.631 287.983 215.737 319.334C215.171 321.466 214.406 323.827 213.896 325.591C213.3 327.651 212.876 329.446 212.729 331.151C210.552 356.464 230.039 379.264 257.197 379.364C271.144 379.415 282.687 373.665 291.821 362.086C306.17 343.897 302.689 318.156 285.854 302.715Z" fill="black" stroke="black" stroke-width="10"/>
<path d="M574.014 1273.37C574.634 1273.17 575.716 1272.93 576.998 1273.25H576.999C578.47 1273.61 579.696 1274.38 580.579 1275.12C581.477 1275.88 582.379 1276.9 582.996 1278.13H582.995C592.788 1297.71 605.09 1315.67 619.047 1332.74C633.153 1350 650.364 1363.77 669.282 1375.7C699.112 1394.5 731.355 1407.41 766.11 1413.32C776.665 1415.12 787.113 1415.52 798.41 1416.67C804.674 1417.31 812.197 1417.57 819.132 1418.96C828.834 1420.91 835.656 1426.56 839.585 1433.94C843.444 1441.18 844.413 1449.86 843.095 1458.08C841.164 1470.13 834.066 1478.5 822.541 1483.04L821.788 1483.34L820.979 1483.38C784.808 1485.36 750.183 1479.86 716.213 1469.68C690.829 1462.08 666.849 1451.45 644.078 1438.3C624.328 1426.88 606.166 1413.26 589.184 1398.05C573.277 1383.8 559.658 1367.83 547.253 1350.81C545.402 1348.27 544.274 1345.57 544.142 1342.54C544.016 1339.63 544.841 1336.93 545.921 1334.44C552.957 1318.23 559.462 1301.83 566.217 1285.34C566.942 1283.58 567.995 1280.51 569.114 1278.16V1278.16C569.596 1277.15 570.328 1276.14 571.03 1275.39C571.384 1275.02 571.901 1274.51 572.549 1274.09C572.874 1273.87 573.373 1273.58 574.014 1273.37Z" fill="black" stroke="black" stroke-width="10"/>
<path d="M438.003 597.645C440.388 597.501 442.492 598.3 444.228 599.266C445.951 600.224 447.706 601.573 449.491 603.068C462.134 613.662 472.761 625.899 482.795 638.35C485.523 641.735 489.657 647.021 487.322 654.608C482.935 668.864 478.64 683.128 474.323 697.414L469.994 711.708C469.711 712.639 469.315 713.43 468.991 714.065C468.636 714.759 468.261 715.462 467.716 716.582L464.182 723.854L459.254 717.443C452.76 708.993 446.741 701.161 440.483 693.079C436.114 688.156 431.805 683.298 427.527 678.471L414.652 663.934C414.256 663.488 413.794 663.022 413.226 662.465C412.696 661.945 412.023 661.297 411.401 660.65C410.176 659.377 408.613 657.578 407.719 655.227C407.005 653.348 406.446 651.085 406.268 648.814C406.098 646.64 406.231 643.884 407.463 641.426L408.542 639.296C413.982 628.666 420.08 618.317 425.777 608.149L426.073 607.647C426.371 607.165 426.67 606.745 426.911 606.413C427.287 605.895 427.472 605.657 427.692 605.333C428.999 603.407 430.372 601.639 431.909 600.305C433.517 598.908 435.529 597.795 438.003 597.645Z" fill="black" stroke="black" stroke-width="10"/>
</svg>
